<?xml version="1.0" encoding="utf-8"?>
<!-- Generator: Adobe Illustrator 15.1.0, SVG Export Plug-In . SVG Version: 6.00 Build 0)  -->
<!DOCTYPE svg PUBLIC "-//W3C//DTD SVG 1.1//EN" "http://www.w3.org/Graphics/SVG/1.1/DTD/svg11.dtd">
<svg version="1.1" id="Layer_1" xmlns="http://www.w3.org/2000/svg" xmlns:xlink="http://www.w3.org/1999/xlink" x="0px" y="0px"
	 width="500px" height="500px" viewBox="0 0 500 500" enable-background="new 0 0 500 500" xml:space="preserve">
<path fill="#58595B" d="M476.987,348.552l0.015-0.129l-15.568-60.341l-26.257-59.221l-0.386-0.536l-60.667-45.203l-0.162-0.122
	l-72.317-5.143l-0.715,0.106l-48.538,11.711l-0.741,0.094l-48.46,3.052l-1.359-0.531l-12.312-5.324l0.05-1.696l0.558-12.642
	l0.13-0.325l19.792-17.301l0.351-0.526l16.85-54.995l9.522-38.093l0.038-0.149l-16.335-12.253l-1.137-0.122l-48.433,33.358
	l-0.273,0.108l-0.063,0.295l-18.061,41.115l-0.111,0.174l-0.049,0.143l0.009,0.021l-1.301,2.96l-19.113,26.364l-0.487,0.494
	l-36.082,15.146l-0.079,0.034L67.523,189.9l-19.668,21.042l-18.32,31.104l-0.146,0.248l2.947,11.337h5.216l1.018,0.092v14.694
	l14.791,5.202l0.618,0.112h18.633l40.476,9.688l0.838,0.516l9.582,9.583l49.701,47.418l-0.012,0.122l48.186,26.06l10.051,13.82
	l-14.601,2.539l-0.087,0.016l-8.968,11.389l-4.502,6.668l10.734,5.07l-0.721,0.897l0.526-0.126l-8.511,17.058l26.538,5.443
	l-0.051,0.264l0.849-0.105l30.967,4.711l71.542,9.45l0.044,0.006l31.848-0.001h1.001l7.64-0.001l43.692,3.361l1.003-0.443
	l15.111-13.799l3.419-1.167l0.965-0.33l23.367-7.978l9.549-13.644l8.093-9.232l-7.251-23.666L476.987,348.552z M368.013,441.439
	l-4.202-27.012l14.887,8.041L368.013,441.439z M361.603,414.014l0.809,0.443l4.414,28.373l-31.525,0.003l-71.497-9.443
	l-26.089-3.969L361.603,414.014z M237.171,401.744l-4.912,25.951l-15.961-20.903L237.171,401.744z M176.26,341.137l66.457-6.5
	l3.249-0.317l-24.301,31.373L176.26,341.137z M133.646,153.415l18.605-25.662l0.854-1.931l9.719,22.626L133.646,153.415z
	 M169.166,89.266l-2.613,12.372l-0.034,0.029l-0.009,0.094l-9.137,14.349L169.166,89.266z M225.915,99.11l-15.654,51.086
	l-0.535-16.431l14.788-55.075l9.962-13.834L225.915,99.11z M208.396,135.554l0.597,18.324l-20.913,6.506L208.396,135.554z
	 M181.114,273.731h46.64l18.825,59.133l-71.875,7.03L181.114,273.731z M161.279,224.444l0.067-0.95l26.516-33.797l-8.015,82.733
	l-64.363,9.521l45.343-57.795L161.279,224.444z M185.268,161.477l-20.766,15.673l-0.001-27.58l0.293-0.051l-0.293-0.681
	l-0.002-12.386l3.347-34.094l37.245-31.923l17.965,8.337l-14.658,54.589l-22.722,27.771l-0.472,0.146L185.268,161.477z
	 M188.098,187.148l-13.289,16.938l-13.289,16.94l2.946-41.934l24.257-6.11L188.098,187.148z M181.249,272.345l8.13-83.927
	l13.01,5.625l24.924,78.302H181.249z M206.777,156.02l-16.987,14.849l-2.832-8.683L206.777,156.02z M216.842,52.268l-12.304,16.776
	l-27.96,10.955L216.842,52.268z M163.115,149.806v27.336L133.778,154.8L163.115,149.806z M126.244,200.528l6.363-44.876
	l30.484,23.215l-3.033,43.157L126.244,200.528z M179.708,273.854l-6.328,65.326l-48.902-46.653l-9.149-9.148L179.708,273.854z
	 M204.706,194.116l46.658-2.938l-7.411,36.47L204.706,194.116z M433.273,231.231l-30.065,146.164l-27.684-83.883L433.273,231.231z
	 M420.003,445.597l-6.603-27.166l8.305-10.887l16.376,23.44l-3.313,1.132L420.003,445.597z M404.91,383.506l15.969,22.853
	l-7.9,10.339l-5.429-22.334L404.91,383.506z M216.914,405.217l14.228-17.751l5.927,12.875L216.914,405.217z M389.524,406.07
	l13.581-24.117l8.519,35.041L389.524,406.07z M400.664,381.394l-35.206,28.782l14.097-24.084L400.664,381.394z M400.955,382.947
	l-12.854,22.824l-22.273,5.892L400.955,382.947z M265.354,400.368l5.563,4.944l-32.391-5.122l-5.872-12.753L265.354,400.368z
	 M245.264,386.85l4.957,3.332l9.788,6.579l-25.067-9.911H245.264z M247.301,334.86l11.061,28.004l1.526,2.461l-27.04,15.198
	l-10.128-13.928L247.301,334.86z M244.707,230.116l34.093,29.128l-26.275,20.509l-0.994,1.096l-4.414,49.133l-18.123-56.929
	L244.707,230.116z M265.629,293.791l14.117-32.438l1.763,6.466L265.629,293.791z M316.476,259.963l-33.721,7.149l-1.95-7.149
	H316.476z M327.764,273.728l17.403,0.002l-82.584,27.701l20.036-32.767L327.764,273.728z M262.729,302.846l86.798-29.114h2.71
	l-1.254-0.656l18.974-8.738l0.357,0.192l3.692,28.58l-43.293,46.691L262.729,302.846z M368.426,263.516l-18.993,8.75l-25.698-13.442
	l-0.048-0.39l-0.668,0.142h-42.218l9.863-36.87L368.426,263.516z M286.598,267.716l35.896-7.611l1.448,11.801L286.598,267.716z
	 M288.764,394.013l-29.286-52.652h69.966L288.764,394.013z M280.002,396.949l6.09-0.69l-12.898,9.223l-6.026-5.357L280.002,396.949z
	 M263.581,368.644l23.665,26.089l-6.992,0.791L263.581,368.644z M257.64,341.062l0.031,0.298l0,0h0.219l27.243,48.979
	l-25.561-28.178l-10.615-26.884L257.64,341.062z M253.41,285.677l6.67,16.594l0.194,0.819l-2.099,29.511L253.41,285.677z
	 M253.063,281.093l7.047-5.501l18.061-14.096l-17.146,39.402L253.063,281.093z M257.459,339.274l-9.232-6.15l4.04-44.977
	L257.459,339.274z M374.445,294.675l27.712,83.961l-70.187-38.151L374.445,294.675z M370.004,262.788l-78.971-42.459l10.933-40.866
	l60.31,22.861l7.809,60.429L370.004,262.788z M233.867,381.924l-0.196-0.271l26.646-14.977l4.498,31.646l-19.129-12.86h-14.254
	l-0.941,0.594l-15.588,19.45l-9.572-4.521l3.568-5.287l8.609-10.93L233.867,381.924z M238.608,401.607l34.43,5.445l0.281,0.044
	l15.252-10.903l0.927-0.862l41.193-53.318l31.207,70.566l-128.39,15.967L238.608,401.607z M378.763,384.848l-0.1,0.021
	l-15.666,26.765l-30.684-69.385l69.094,37.558L378.763,384.848z M387.151,407.458l-7.773,13.801l-14.596-7.884L387.151,407.458z
	 M392.896,428.558l-12.296-6.639l8.244-14.639l22.317,11.032L392.896,428.558z M433.244,229.223l-58.01,62.562l-11.487-88.904
	L433.244,229.223z M372.538,184.29l-9.926,16.676l-56.451-21.397L372.538,184.29z M253.768,190.77l46.754-11.28l-10.697,39.988
	L253.768,190.77z M289.434,220.938l-9.923,37.09l-34.356-29.354l7.524-36.998L289.434,220.938z M391.465,429.361l-22.01,12.348
	l10.464-18.582L391.465,429.361z M392.872,430.161l24.104,15.84l-41.242-3.171h-5.444L392.872,430.161z M434.636,396.578
	l3.849,23.774v8.785l-15.82-22.644L434.636,396.578z M462.362,422.693l-22.49,7.679l-0.003-10.093l-4.096-25.359l-0.019-0.12
	l-30.717-14.688l70.432-30.525l-3.246,27.812l-0.007,0.048l7.111,23.204l-7.616,8.69L462.362,422.693z M460.112,288.502
	l15.366,59.568l-71.166,30.845l30.385-147.716L460.112,288.502z M206.038,69.344l13.338-18.188l3.638,26.069L206.038,69.344z
	 M201.414,71.758l-33.13,28.397l3.55-16.808L201.414,71.758z M114.914,280.432l11.116-78.395l33.62,21.372L114.914,280.432z
	 M99.711,246.118l-45.718,26.009l-13.48-18.646L99.711,246.118z M129.635,156.166l-31.704,36.779l-14.569,5.476l10.453-26.502
	l2.175-1.631L129.635,156.166z M124.843,200.523l-9.609,8.426v-11.602l-15.646-4.2l31.48-36.52L124.843,200.523z M115.116,210.945
	l0.118-0.069v-0.082l9.311-8.165l-10.908,76.928l-9.832-34.542L115.116,210.945z M82.837,211.017v-10.916l15.54-5.842l15.469,4.154
	v11.672l-17.499,10.33L82.837,211.017z M95.717,221.666l6.474,22.746l-60.956,7.581l40.98-39.717L95.717,221.666z M72.855,272.362
	l-16.438-0.018l46.236-26.304l10.219,35.902L72.855,272.362z M81.45,200.596v10.489l-42.466,41.159H33.41l-2.533-9.742
	l17.989-30.551L81.45,200.596z"/>
</svg>
